<?xml version="1.0" encoding="utf-8"?>
<!-- Generator: Adobe Illustrator 18.1.1, SVG Export Plug-In . SVG Version: 6.00 Build 0)  -->
<svg version="1.1" id="Layer_1" xmlns="http://www.w3.org/2000/svg" xmlns:xlink="http://www.w3.org/1999/xlink" x="0px" y="0px"
	 viewBox="22.5 -37.5 115 115" enable-background="new 22.5 -37.5 115 115" xml:space="preserve">
<g>
	<g>
		<path fill="#2C2F33" d="M127.1,3h-11.5v-16.2c0-5.2-4.2-9.4-9.4-9.4h-73c-5.2,0-9.4,4.2-9.4,9.4V29c0,5.2,4.2,9.4,9.4,9.4h11.5
			v16.2c0,5.2,4.2,9.4,9.4,9.4h73c5.2,0,9.4-4.2,9.4-9.4V12.4C136.6,7.2,132.3,3,127.1,3z M29.3-13.2c0-2.2,1.8-4,4-4h73
			c2.2,0,4,1.8,4,4v3.8h-81V-13.2z M44.8,12.4V33H33.3c-2.2,0-4-1.8-4-4V8.4h16.4C45.1,9.6,44.8,10.9,44.8,12.4z M29.3,3v-7.1h81V3
			H54.2c-0.2,0-0.4,0-0.5,0H29.3z M127.1,58.6h-73c-2.2,0-4-1.8-4-4V12.4c0-2.1,1.6-3.8,3.7-4H113c0.1,0,0.2,0,0.3,0h13.9
			c2.2,0,4,1.8,4,4v42.2h0C131.2,56.8,129.4,58.6,127.1,58.6z"/>
	</g>
</g>
<path fill="#3C92CA" d="M93.1,31.7h-5.2c-1.9,0-3.5-1.5-3.5-3.5s1.5-3.5,3.5-3.5h9.3c1.3,0,2.3-1,2.3-2.3s-1-2.3-2.3-2.3h-4.4V17
	c0-1.3-1-2.3-2.3-2.3c-1.3,0-2.3,1-2.3,2.3v3.2h-0.3c-4.4,0-8,3.6-8,8s3.6,8,8,8h5.2c1.9,0,3.5,1.5,3.5,3.5c0,1.9-1.5,3.5-3.5,3.5
	h-9.4c-1.3,0-2.3,1-2.3,2.3s1,2.3,2.3,2.3h4.5V51c0,1.3,1,2.3,2.3,2.3c1.3,0,2.3-1,2.3-2.3v-3.3h0.3c4.4,0,8-3.6,8-8
	C101.1,35.3,97.5,31.7,93.1,31.7z"/>
</svg>
