<?xml version="1.0" encoding="utf-8"?>
<!-- Generator: Adobe Illustrator 18.1.1, SVG Export Plug-In . SVG Version: 6.00 Build 0)  -->
<svg version="1.1" id="Capa_1" xmlns="http://www.w3.org/2000/svg" xmlns:xlink="http://www.w3.org/1999/xlink" x="0px" y="0px"
	 viewBox="22.5 -37.5 115 115" enable-background="new 22.5 -37.5 115 115" xml:space="preserve">
<g>
	<path fill="#2C2F33" d="M75.9-14.7c-5.3,0-9.7,2.8-9.7,6.3s4.3,6.3,9.7,6.3c5.3,0,9.7-2.8,9.7-6.3S81.2-14.7,75.9-14.7z"/>
	<g>
		<path fill="#2C2F33" d="M110.6,69.2c-3.3,2.6-7.4,4-11.6,4c-4.2,0-8.1-1.3-11.4-3.8H51.1c-6.1,0-11.1-5-11.1-11.1v-6
			c3,2.5,6.9,4,11.1,4h29.1c-0.1-0.6-0.1-1.2-0.1-1.9c0-1.5,0.2-3,0.5-4.4H51.1C45,49.9,40,45,40,38.8v-6c3,2.5,6.9,4,11.1,4h41
			c2.2-0.8,4.5-1.3,6.9-1.3c0.7,0,1.5,0,2.2,0.1l13.4-13.4c1-1,2.3-1.7,3.6-2.1v-37.1c0-9.6-7.8-17.4-17.4-17.4H51.1
			c-9.6,0-17.4,7.8-17.4,17.4v55.7c0,0,0,0,0,0h0v19.4c0,9.6,7.8,17.4,17.4,17.4h49.6c5.5,0,10.4-2.5,13.5-6.5L110.6,69.2
			L110.6,69.2z M57.1-22.2c5.1-3.3,11.7-5.1,18.8-5.1c7,0,13.7,1.8,18.8,5.1c5.5,3.6,8.5,8.4,8.5,13.7s-3,10.2-8.5,13.7
			c-5.1,3.3-11.7,5.1-18.8,5.1c-7,0-13.7-1.8-18.8-5.1c-5.5-3.6-8.5-8.4-8.5-13.7S51.7-18.6,57.1-22.2z M40,13.5c3,2.5,6.9,4,11.1,4
			h49.6c4.2,0,8.1-1.5,11.1-4v5.9c0,6.1-5,11.1-11.1,11.1H51.1c-6.1,0-11.1-5-11.1-11.1C40,19.4,40,13.5,40,13.5z"/>
		<g>
			<path fill="#3C92CA" d="M93.7,54.3c-0.4-0.4-1-0.4-1.3,0L91,55.6c-0.2,0.2-0.3,0.4-0.3,0.7c0,0.3,0.1,0.5,0.3,0.7l5.4,5.4
				c0.2,0.2,0.4,0.3,0.7,0.3c0.2,0,0.5-0.1,0.7-0.3L99,61c0.2-0.2,0.3-0.4,0.3-0.7c0-0.3-0.1-0.5-0.3-0.7L93.7,54.3z"/>
			<path fill="#3C92CA" d="M128.3,25c-0.8-0.8-2-1.3-3.2-1.3l-4.7,0.1c-1.2,0-2.3,0.5-3.1,1.3L102.5,40c-1.2-0.3-2.4-0.4-3.6-0.4
				c-4,0-7.7,1.5-10.5,4.3c-2.8,2.8-4.4,6.5-4.4,10.5c0,4,1.5,7.7,4.4,10.5c2.8,2.8,6.5,4.4,10.5,4.4c4,0,7.7-1.5,10.5-4.4
				c3.7-3.7,5.2-9,3.9-14.1L128.2,36c0.8-0.8,1.3-1.9,1.3-3.1l0.1-4.6C129.6,27,129.1,25.9,128.3,25z M109.3,50.3l0.2,0.6
				c1.3,4,0.3,8.4-2.7,11.4c-2.1,2.1-4.9,3.2-7.8,3.2c-3,0-5.7-1.2-7.8-3.2c-2.1-2.1-3.2-4.9-3.2-7.8c0-3,1.2-5.7,3.2-7.8
				c2.1-2.1,4.9-3.2,7.8-3.2c1.2,0,2.4,0.2,3.5,0.6L103,44c0.3,0.1,0.7,0,1-0.2L120,27.8c0.1-0.1,0.3-0.2,0.5-0.2l4.6-0.1
				c0.2,0,0.4,0.1,0.5,0.2c0.1,0.1,0.2,0.3,0.2,0.5l-0.1,4.6c0,0.2-0.1,0.3-0.2,0.5l-2.7,2.7l-1.9-1.9c-0.4-0.4-1-0.4-1.3,0
				l-1.3,1.3c-0.2,0.2-0.3,0.4-0.3,0.7c0,0.2,0.1,0.5,0.3,0.7l1.9,1.9l-4.2,4.2l-1.9-1.9c-0.4-0.4-1-0.4-1.3,0l-1.3,1.3
				c-0.2,0.2-0.3,0.4-0.3,0.7c0,0.2,0.1,0.5,0.3,0.7l1.9,1.9l-3.8,3.8C109.2,49.6,109.1,50,109.3,50.3z"/>
		</g>
	</g>
</g>
</svg>
