<?xml version="1.0" encoding="utf-8"?>
<!-- Generator: Adobe Illustrator 18.1.1, SVG Export Plug-In . SVG Version: 6.00 Build 0)  -->
<svg version="1.1" id="Layer_1" xmlns="http://www.w3.org/2000/svg" xmlns:xlink="http://www.w3.org/1999/xlink" x="0px" y="0px"
	 viewBox="22.5 -37.5 115 115" enable-background="new 22.5 -37.5 115 115" xml:space="preserve">
<g>
	<g>
		<path fill="#3C92CA" d="M79.7,42.2c0.3,0.1,0.6,0.2,0.9,0.2c0.6,0,1.2-0.2,1.6-0.7l12.8-12.3h24.2c5.3,0,9.6-4.3,9.6-9.6V-7.2
			c0-5.3-4.3-9.6-9.6-9.6H74.9c-5.3,0-9.6,4.3-9.6,9.6v27.1c0,5.3,4.3,9.6,9.6,9.6h3.4v10.6C78.3,41,78.9,41.8,79.7,42.2z
			 M74.9,24.8c-2.8,0-5-2.2-5-5V-7.2c0-2.8,2.2-5,5-5h44.3c2.8,0,5,2.2,5,5v27.1c0,2.8-2.2,5-5,5H94.1c-0.6,0-1.2,0.2-1.6,0.7
			l-9.6,9.2v-7.5c0-1.3-1-2.3-2.3-2.3L74.9,24.8L74.9,24.8L74.9,24.8z"/>
		<path fill="#2C2F33" d="M104.8,68V37.3c0-1.3-1-2.3-2.3-2.3s-2.3,1-2.3,2.3v30.8c0,2.1-1.7,3.8-3.8,3.8H42.4
			c-2.1,0-3.8-1.7-3.8-3.8v-97.1c0-2.1,1.7-3.8,3.8-3.8h53.9c2.1,0,3.8,1.7,3.8,3.8v4.8c0,1.3,1,2.3,2.3,2.3s2.3-1,2.3-2.3v-4.8
			c0-4.7-3.8-8.4-8.4-8.4H42.4c-4.7,0-8.4,3.8-8.4,8.4v97.1c0,4.7,3.8,8.4,8.4,8.4h53.9C101,76.5,104.8,72.7,104.8,68z"/>
		<path fill="#2C2F33" d="M76.3,58.1H62.5c-1.3,0-2.3,1-2.3,2.3s1,2.3,2.3,2.3h13.8c1.3,0,2.3-1,2.3-2.3S77.6,58.1,76.3,58.1z"/>
	</g>
</g>
<path fill="#3C92CA" d="M99.1,4.4h-3.9c-1.4,0-2.6-1.2-2.6-2.6s1.2-2.6,2.6-2.6h6.9c0.9,0,1.7-0.8,1.7-1.7s-0.8-1.7-1.7-1.7h-3.2
	v-2.4c0-0.9-0.8-1.7-1.7-1.7s-1.7,0.8-1.7,1.7v2.4h-0.3c-3.3,0-6,2.7-6,6s2.7,6,6,6h3.9c1.4,0,2.6,1.2,2.6,2.6s-1.2,2.6-2.6,2.6h-7
	c-0.9,0-1.7,0.8-1.7,1.7c0,0.9,0.8,1.7,1.7,1.7h3.4v2.4c0,0.9,0.8,1.7,1.7,1.7s1.7-0.8,1.7-1.7v-2.4h0.3c3.3,0,6-2.7,6-6
	C105.1,7.1,102.4,4.4,99.1,4.4z"/>
</svg>
