<?xml version="1.0" encoding="utf-8"?>
<!-- Generator: Adobe Illustrator 18.1.1, SVG Export Plug-In . SVG Version: 6.00 Build 0)  -->
<svg version="1.1" id="Capa_1" xmlns="http://www.w3.org/2000/svg" xmlns:xlink="http://www.w3.org/1999/xlink" x="0px" y="0px"
	 viewBox="22.5 -37.5 115 115" enable-background="new 22.5 -37.5 115 115" xml:space="preserve">
<g>
	<path fill="#2C2F33" d="M98.3-27.3h-1c0,1.5,0,2.8,0,4.3h1c4,0,7.2,3.2,7.2,7.2v80.9l0,0c0,4-3.2,7.2-7.2,7.2H61.7
		c-4,0-7.2-3.2-7.2-7.2v-80.4c0-4.1,3.4-7.7,7.2-7.7h1c0-1.3,0-2.9,0-4.3h-1c-6.2,0-11.5,5.5-11.5,12V65c0,6.3,5.1,11.5,11.5,11.5
		h36.7c6.3,0,11.5-5.1,11.5-11.5v-80.9C109.7-22.2,104.6-27.3,98.3-27.3z"/>
	<path fill="#3C92CA" d="M97-27.3v-6.9c0-1.2-1-2.1-2.1-2.1H65.2c-1.2,0-2.1,1-2.1,2.1v6.9l0,0c0,1.4,0,2.9,0,4.3l0,0v6.2
		c1.4,0,2.8,0,4.3,0V-32h25.5v6.9l0,0l0,0v8.3c1.4,0,2.8,0,4.3,0V-23"/>
	<path fill="#2C2F33" d="M60.8-16.4c-1.2,0-2.1,1-2.1,2.1s1,2.1,2.1,2.1h4.4h29.7H99c1.2,0,2.1-1,2.1-2.1s-1-2.1-2.1-2.1h-2.1l0,0
		c-1.4,0-2.8,0-4.3,0l0,0H67.3l0,0c-1.4,0-2.8,0-4.3,0l0,0H60.8z"/>
	<path fill="#2C2F33" d="M67.3,23.4h-4.2c-2.3,0-4.3,1.9-4.3,4.3v2.1c0,2.3,1.9,4.3,4.3,4.3h4.2c2.3,0,4.3-1.9,4.3-4.3v-2.1
		C71.6,25.4,69.7,23.4,67.3,23.4z M63.1,29.8v-2.1h4.2v2.1H63.1z"/>
	<path fill="#2C2F33" d="M82.1,23.4H78c-2.3,0-4.3,1.9-4.3,4.3v2.1c0,2.3,1.9,4.3,4.3,4.3h4.2c2.3,0,4.3-1.9,4.3-4.3v-2.1
		C86.4,25.4,84.5,23.4,82.1,23.4z M78,29.8v-2.1h4.2v2.1H78z"/>
	<path fill="#2C2F33" d="M96.9,23.4h-4.2c-2.3,0-4.3,1.9-4.3,4.3v2.1c0,2.3,1.9,4.3,4.3,4.3h4.2c2.3,0,4.3-1.9,4.3-4.3v-2.1
		C101.2,25.4,99.3,23.4,96.9,23.4z M92.7,29.8v-2.1h4.2v2.1H92.7z"/>
	<path fill="#2C2F33" d="M67.3,36.2h-4.2c-2.3,0-4.3,1.9-4.3,4.3v2.1c0,2.3,1.9,4.3,4.3,4.3h4.2c2.3,0,4.3-1.9,4.3-4.3v-2.1
		C71.6,38.1,69.7,36.2,67.3,36.2z M63.1,42.6v-2.1h4.2v2.1H63.1z"/>
	<path fill="#2C2F33" d="M82.1,36.2H78c-2.3,0-4.3,1.9-4.3,4.3v2.1c0,2.3,1.9,4.3,4.3,4.3h4.2c2.3,0,4.3-1.9,4.3-4.3v-2.1
		C86.4,38.1,84.5,36.2,82.1,36.2z M78,42.6v-2.1h4.2v2.1H78z"/>
	<path fill="#2C2F33" d="M96.9,36.2h-4.2c-2.3,0-4.3,1.9-4.3,4.3v2.1c0,2.3,1.9,4.3,4.3,4.3h4.2c2.3,0,4.3-1.9,4.3-4.3v-2.1
		C101.2,38.1,99.3,36.2,96.9,36.2z M92.7,42.6v-2.1h4.2v2.1H92.7z"/>
	<path fill="#2C2F33" d="M67.3,48.9h-4.2c-2.3,0-4.3,1.9-4.3,4.3v2.1c0,2.3,1.9,4.3,4.3,4.3h4.2c2.3,0,4.3-1.9,4.3-4.3v-2.1
		C71.6,50.8,69.7,48.9,67.3,48.9z M63.1,55.2v-2.1h4.2v2.1H63.1z"/>
	<path fill="#2C2F33" d="M82.1,48.9H78c-2.3,0-4.3,1.9-4.3,4.3v2.1c0,2.3,1.9,4.3,4.3,4.3h4.2c2.3,0,4.3-1.9,4.3-4.3v-2.1
		C86.4,50.8,84.5,48.9,82.1,48.9z M78,55.2v-2.1h4.2v2.1H78z"/>
	<path fill="#2C2F33" d="M96.9,48.9h-4.2c-2.3,0-4.3,1.9-4.3,4.3v2.1c0,2.3,1.9,4.3,4.3,4.3h4.2c2.3,0,4.3-1.9,4.3-4.3v-2.1
		C101.2,50.8,99.3,48.9,96.9,48.9z M92.7,55.2v-2.1h4.2v2.1H92.7z"/>
	<path fill="#2C2F33" d="M84.3,63.8h-8.5c-1.2,0-2.1,1-2.1,2.1c0,1.2,1,2.1,2.1,2.1h8.5c1.2,0,2.1-1,2.1-2.1
		C86.4,64.7,85.4,63.8,84.3,63.8z"/>
	<path fill="#2C2F33" d="M96.9-6.6H62.9c-2.3,0-4.3,1.9-4.3,4.3v15.2c0,2.3,1.9,4.3,4.3,4.3h34.1c2.3,0,4.3-1.9,4.3-4.3V-2.3
		C101.2-4.6,99.2-6.6,96.9-6.6z M83.4,12.9H62.9V-2.3h34.1v15.2"/>
	<path fill="#2C2F33" d="M75.2-1.5"/>
</g>
</svg>
