<?xml version="1.0" encoding="utf-8"?>
<!-- Generator: Adobe Illustrator 19.0.0, SVG Export Plug-In . SVG Version: 6.00 Build 0)  -->
<svg version="1.1" id="Capa_1" xmlns="http://www.w3.org/2000/svg" xmlns:xlink="http://www.w3.org/1999/xlink" x="0px" y="0px"
	 viewBox="-275 367 60 60" style="enable-background:new -275 367 60 60;" xml:space="preserve">
<style type="text/css">
	.st0{fill:#3C92CA;stroke:#3C92CA;stroke-width:0.5;stroke-miterlimit:10;}
	.st1{fill:#2C2F33;stroke:#2C2F33;stroke-width:0.5;stroke-miterlimit:10;}
</style>
<g>
	<path class="st0" d="M-220.4,414.4c-0.4-3.9-3.7-7-7.6-7c-2.4,0-4.7,1.2-6.2,3.2c-0.3,0-0.6-0.1-0.8-0.1c-2.2,0-4.2,1.5-4.8,3.6
		c-1.8,1.1-3,3.1-3,5.2c0,3.3,2.7,6.1,5.9,6.1h10.3c0.1,0,0.1,0,0.2,0c0.1,0,0.1,0,0.2,0h4.1c3.1,0,5.6-2.6,5.6-5.7
		C-216.6,417.3-218.1,415.2-220.4,414.4z M-222.1,423.6l-4.1,0l-0.2,0l-10.4,0c-2.2,0-4-1.9-4-4.2c0-1.6,0.9-3.1,2.3-3.7l0.4-0.2
		l0.1-0.5c0.3-1.5,1.6-2.6,3.1-2.6c0.3,0,0.7,0.1,1,0.2l0.7,0.2l0.4-0.7c1-1.8,2.9-2.9,4.9-2.9c3.1,0,5.7,2.6,5.7,5.8l0,0.8l0.8,0.1
		c1.7,0.3,3,1.9,3,3.7C-218.5,421.9-220.1,423.6-222.1,423.6z"/>
	<path class="st1" d="M-263.6,375c-2.4,0-4.3,1.9-4.3,4.3c0,2.4,1.9,4.3,4.3,4.3c2.4,0,4.3-1.9,4.3-4.3
		C-259.3,376.9-261.2,375-263.6,375z M-263.6,381.7c-1.3,0-2.4-1.1-2.4-2.4s1.1-2.4,2.4-2.4s2.4,1.1,2.4,2.4
		S-262.3,381.7-263.6,381.7z"/>
	<circle class="st1" cx="-225.9" cy="377.9" r="1"/>
	<circle class="st1" cx="-229.8" cy="377.9" r="1"/>
	<circle class="st1" cx="-224" cy="380.7" r="1"/>
	<circle class="st1" cx="-227.9" cy="380.7" r="1"/>
	<circle class="st1" cx="-233.6" cy="377.9" r="1"/>
	<circle class="st1" cx="-231.7" cy="380.7" r="1"/>
	<circle class="st1" cx="-237.4" cy="377.9" r="1"/>
	<circle class="st1" cx="-235.5" cy="380.7" r="1"/>
	<circle class="st1" cx="-241.2" cy="377.9" r="1"/>
	<circle class="st1" cx="-239.3" cy="380.7" r="1"/>
	<path class="st1" d="M-216.4,384.9v-11.2c0-2.4-2-4.4-4.4-4.4h-48.4c-2.4,0-4.4,2-4.4,4.4v11.2c0,1.4,0.7,2.6,1.7,3.4
		c-1,0.8-1.7,2-1.7,3.4V403c0,1.4,0.7,2.6,1.7,3.4c-1,0.8-1.7,2-1.7,3.4v11.2c0,2.4,2,4.4,4.4,4.4h22.3v-1.9h-22.3
		c-1.4,0-2.5-1.1-2.5-2.5v-11.2c0-1.4,1.1-2.5,2.5-2.5h31.8v-1.9h-31.8c-1.4,0-2.5-1.1-2.5-2.5v-11.2c0-1.4,1.1-2.5,2.5-2.5h48.4
		c1.4,0,2.5,1.1,2.5,2.5v13.7h1.9v-13.7c0-1.4-0.7-2.6-1.7-3.4C-217.1,387.5-216.4,386.3-216.4,384.9z M-269.2,387.4
		c-1.4,0-2.5-1.1-2.5-2.5v-11.2c0-1.4,1.1-2.5,2.5-2.5h48.4c1.4,0,2.5,1.1,2.5,2.5v11.2c0,1.4-1.1,2.5-2.5,2.5H-269.2z"/>
	<path class="st1" d="M-267.9,397.4c0,2.4,1.9,4.3,4.3,4.3c2.4,0,4.3-1.9,4.3-4.3c0-2.4-1.9-4.3-4.3-4.3
		C-265.9,393.1-267.9,395-267.9,397.4z M-261.2,397.4c0,1.3-1.1,2.4-2.4,2.4s-2.4-1.1-2.4-2.4c0-1.3,1.1-2.4,2.4-2.4
		S-261.2,396.1-261.2,397.4z"/>
	<circle class="st1" cx="-225.9" cy="396" r="1"/>
	<circle class="st1" cx="-229.8" cy="396" r="1"/>
	<circle class="st1" cx="-224" cy="398.8" r="1"/>
	<circle class="st1" cx="-227.9" cy="398.8" r="1"/>
	<circle class="st1" cx="-233.6" cy="396" r="1"/>
	<circle class="st1" cx="-231.7" cy="398.8" r="1"/>
	<circle class="st1" cx="-237.4" cy="396" r="1"/>
	<circle class="st1" cx="-235.5" cy="398.8" r="1"/>
	<circle class="st1" cx="-241.2" cy="396" r="1"/>
	<circle class="st1" cx="-239.3" cy="398.8" r="1"/>
	<path class="st1" d="M-267.9,415.5c0,2.4,1.9,4.3,4.3,4.3c2.4,0,4.3-1.9,4.3-4.3c0-2.4-1.9-4.3-4.3-4.3
		C-265.9,411.2-267.9,413.1-267.9,415.5z M-261.2,415.5c0,1.3-1.1,2.4-2.4,2.4s-2.4-1.1-2.4-2.4s1.1-2.4,2.4-2.4
		S-261.2,414.2-261.2,415.5z"/>
</g>
</svg>
