<?xml version="1.0" encoding="utf-8"?>
<!-- Generator: Adobe Illustrator 19.0.0, SVG Export Plug-In . SVG Version: 6.00 Build 0)  -->
<svg version="1.1" id="Capa_1" xmlns="http://www.w3.org/2000/svg" xmlns:xlink="http://www.w3.org/1999/xlink" x="0px" y="0px"
	 viewBox="-277 369 56 56" style="enable-background:new -277 369 56 56;" xml:space="preserve">
<style type="text/css">
	.st0{fill:#3C92CA;stroke:#3C92CA;stroke-width:0.5;stroke-miterlimit:10;}
	.st1{fill:#2C2F33;stroke:#2C2F33;stroke-width:0.5;stroke-miterlimit:10;}
</style>
<g>
	<path class="st0" d="M-222.3,421.5l-6.5-6.5l6.2-3.1l-16.8-6.2l6.2,16.8l3.1-6.2l6.5,6.5c0.2,0.2,0.4,0.3,0.7,0.3s0.5-0.1,0.7-0.3
		C-221.9,422.5-221.9,421.9-222.3,421.5z M-236.2,408.9l8.8,3.2l-3.7,1.9l-1.9,3.7L-236.2,408.9z"/>
	<path class="st1" d="M-267.8,375.8c-2.1,0-3.8,1.7-3.8,3.8s1.7,3.8,3.8,3.8s3.8-1.7,3.8-3.8S-265.7,375.8-267.8,375.8z
		 M-267.8,381.5c-1.1,0-1.9-0.9-1.9-1.9s0.9-1.9,1.9-1.9s1.9,0.9,1.9,1.9S-266.8,381.5-267.8,381.5z"/>
	<path class="st1" d="M-259.2,375.8c-2.1,0-3.8,1.7-3.8,3.8s1.7,3.8,3.8,3.8c2.1,0,3.8-1.7,3.8-3.8S-257.1,375.8-259.2,375.8z
		 M-259.2,381.5c-1.1,0-1.9-0.9-1.9-1.9s0.9-1.9,1.9-1.9c1.1,0,1.9,0.9,1.9,1.9S-258.2,381.5-259.2,381.5z"/>
	<path class="st1" d="M-250.6,375.8c-2.1,0-3.8,1.7-3.8,3.8s1.7,3.8,3.8,3.8s3.8-1.7,3.8-3.8S-248.5,375.8-250.6,375.8z
		 M-250.6,381.5c-1.1,0-1.9-0.9-1.9-1.9s0.9-1.9,1.9-1.9s1.9,0.9,1.9,1.9S-249.6,381.5-250.6,381.5z"/>
	<path class="st1" d="M-242.1,418.8h-31.5v-31.5h45.8v17.2c0,0.5,0.4,1,1,1s1-0.4,1-1v-18.1V373c0-0.5-0.4-1-1-1h-47.7
		c-0.5,0-1,0.4-1,1v13.4v33.4c0,0.5,0.4,1,1,1h32.5c0.5,0,1-0.4,1-1C-241.1,419.2-241.5,418.8-242.1,418.8z M-273.6,373.9h45.8v11.5
		h-45.8V373.9z"/>
</g>
</svg>
