<?xml version="1.0" encoding="utf-8"?>
<!-- Generator: Adobe Illustrator 19.0.0, SVG Export Plug-In . SVG Version: 6.00 Build 0)  -->
<svg version="1.1" id="Capa_1" xmlns="http://www.w3.org/2000/svg" xmlns:xlink="http://www.w3.org/1999/xlink" x="0px" y="0px"
	 viewBox="-275 367 60 60" style="enable-background:new -275 367 60 60;" xml:space="preserve">
<style type="text/css">
	.st0{fill:#2C2F33;stroke:#2C2F33;stroke-width:0.5;stroke-miterlimit:10;}
	.st1{fill:#3C92CA;stroke:#3C92CA;stroke-width:0.5;stroke-miterlimit:10;}
</style>
<g>
	<path class="st0" d="M-238.7,389.2h-24.1c-0.5,0-1,0.4-1,1c0,0.5,0.4,1,1,1h24.1c0.5,0,1-0.4,1-1
		C-237.8,389.6-238.2,389.2-238.7,389.2z"/>
	<path class="st0" d="M-262.8,383.4h9.6c0.5,0,1-0.4,1-1s-0.4-1-1-1h-9.6c-0.5,0-1,0.4-1,1S-263.3,383.4-262.8,383.4z"/>
	<path class="st0" d="M-237.8,397.8c0-0.5-0.4-1-1-1h-24.1c-0.5,0-1,0.4-1,1c0,0.5,0.4,1,1,1h24.1
		C-238.2,398.8-237.8,398.4-237.8,397.8z"/>
	<path class="st0" d="M-245.5,405.5c0-0.5-0.4-1-1-1h-16.4c-0.5,0-1,0.4-1,1c0,0.5,0.4,1,1,1h16.4
		C-245.9,406.5-245.5,406.1-245.5,405.5z"/>
	<path class="st0" d="M-262.8,412.3c-0.5,0-1,0.4-1,1c0,0.5,0.4,1,1,1h13.5c0.5,0,1-0.4,1-1c0-0.5-0.4-1-1-1H-262.8z"/>
	<path class="st0" d="M-271.5,369.9h27.9v13.5h13.5v13.1l1.9,0V382l-14-14h-31.2v57.8h28.8v-1.9h-26.9V369.9z M-241.6,371.3
		l10.2,10.2h-10.2V371.3z"/>
	<path class="st1" d="M-217.4,411.2l-1.4-0.3c-0.7-0.1-1.2-0.6-1.4-1.2c-0.2-0.6-0.2-1.3,0.2-1.8l0.9-1.2c0.3-0.4,0.2-0.9-0.1-1.3
		l-1.9-1.9c-0.3-0.3-0.8-0.4-1.2-0.1l-1.2,0.8c-0.6,0.4-1.2,0.4-1.8,0.2c-0.6-0.3-1-0.8-1.1-1.5l-0.2-1.5c-0.1-0.5-0.5-0.8-0.9-0.8
		h-2.7c-0.5,0-0.9,0.3-0.9,0.8l-0.3,1.8c-0.1,0.6-0.5,1.1-1.1,1.4c-0.6,0.2-1.3,0.2-1.8-0.2l-1.5-1c-0.4-0.3-0.9-0.2-1.2,0.1
		l-1.9,1.9c-0.3,0.3-0.4,0.9-0.1,1.3l0.9,1.2c0.4,0.5,0.5,1.2,0.2,1.8c-0.2,0.6-0.8,1-1.4,1.2l-1.4,0.3c-0.5,0.1-0.8,0.5-0.8,0.9
		v2.7c0,0.5,0.3,0.9,0.8,1l1.5,0.2c0.7,0.1,1.2,0.5,1.5,1.1c0.3,0.6,0.2,1.3-0.2,1.8l-0.8,1.2c-0.3,0.4-0.2,0.9,0.1,1.2l1.9,1.9
		c0.3,0.3,0.9,0.4,1.2,0.1l1.2-0.9c0.5-0.4,1.2-0.5,1.8-0.2c0.6,0.2,1,0.8,1.2,1.4l0.3,1.4c0.1,0.5,0.5,0.8,0.9,0.8h2.7
		c0.5,0,0.9-0.3,1-0.8l0.2-1c0.1-0.7,0.5-1.2,1.1-1.5c0.6-0.3,1.3-0.2,1.8,0.2l0.8,0.6c0.4,0.3,0.9,0.2,1.3-0.1l1.9-1.9
		c0.3-0.3,0.4-0.8,0.1-1.2l-0.8-1.2c-0.4-0.6-0.4-1.2-0.2-1.8c0.3-0.6,0.8-1,1.5-1.1l1.5-0.2c0.5-0.1,0.8-0.5,0.8-1v-2.7
		C-216.6,411.7-216.9,411.3-217.4,411.2z M-218.5,414l-0.6,0.1c-1.3,0.2-2.4,1-2.9,2.2c-0.5,1.2-0.4,2.6,0.3,3.7l0.3,0.5l-0.7,0.7
		l-0.2-0.1c-1.1-0.8-2.5-1-3.7-0.4c-1.2,0.5-2.1,1.6-2.3,3l0,0.2h-1l-0.1-0.6c-0.2-1.3-1.1-2.4-2.4-2.8c-1.2-0.5-2.6-0.3-3.7,0.5
		l-0.5,0.4l-0.7-0.7l0.3-0.5c0.7-1.1,0.9-2.5,0.3-3.7c-0.5-1.2-1.6-2-2.9-2.2l-0.6-0.1v-1l0.6-0.1c1.3-0.2,2.4-1.1,2.8-2.4
		c0.5-1.2,0.3-2.6-0.5-3.7l-0.4-0.5l0.7-0.7l0.9,0.6c1.1,0.7,2.4,0.9,3.6,0.4c1.2-0.5,2-1.5,2.3-2.8l0.2-1h1l0.1,0.6
		c0.2,1.3,1,2.4,2.2,2.9c1.2,0.5,2.6,0.4,3.7-0.3l0.5-0.3l0.7,0.7l-0.4,0.5c-0.8,1.1-1,2.4-0.5,3.7c0.5,1.2,1.5,2.1,2.8,2.4l0.6,0.1
		L-218.5,414L-218.5,414z"/>
	<path class="st1" d="M-229.1,408.4c-2.7,0-4.8,2.2-4.8,4.8c0,2.7,2.2,4.8,4.8,4.8s4.8-2.2,4.8-4.8
		C-224.3,410.6-226.5,408.4-229.1,408.4z M-229.1,416.1c-1.6,0-2.9-1.3-2.9-2.9c0-1.6,1.3-2.9,2.9-2.9c1.6,0,2.9,1.3,2.9,2.9
		C-226.2,414.8-227.5,416.1-229.1,416.1z"/>
</g>
</svg>
