<?xml version="1.0" encoding="utf-8"?>
<!-- Generator: Adobe Illustrator 19.0.0, SVG Export Plug-In . SVG Version: 6.00 Build 0)  -->
<svg version="1.1" id="Capa_1" xmlns="http://www.w3.org/2000/svg" xmlns:xlink="http://www.w3.org/1999/xlink" x="0px" y="0px"
	 viewBox="-275 367 60 60" style="enable-background:new -275 367 60 60;" xml:space="preserve">
<style type="text/css">
	.st0{fill:#2C2F33;stroke:#2C2F33;stroke-width:0.5;stroke-miterlimit:10;}
	.st1{fill:#3C92CA;stroke:#3C92CA;stroke-width:0.5;stroke-miterlimit:10;}
</style>
<g>
	<path class="st0" d="M-238.2,389.3h-24.1c-0.5,0-1,0.4-1,1c0,0.5,0.4,1,1,1h24.1c0.5,0,1-0.4,1-1
		C-237.3,389.7-237.7,389.3-238.2,389.3z"/>
	<path class="st0" d="M-262.4,383.5h9.7c0.5,0,1-0.4,1-1s-0.4-1-1-1h-9.7c-0.5,0-1,0.4-1,1S-262.9,383.5-262.4,383.5z"/>
	<path class="st0" d="M-237.3,398c0-0.5-0.4-1-1-1h-24.1c-0.5,0-1,0.4-1,1s0.4,1,1,1h24.1C-237.7,399-237.3,398.5-237.3,398z"/>
	<path class="st0" d="M-245,405.7c0-0.5-0.4-1-1-1h-16.4c-0.5,0-1,0.4-1,1c0,0.5,0.4,1,1,1h16.4C-245.4,406.7-245,406.3-245,405.7z"
		/>
	<path class="st0" d="M-262.4,412.5c-0.5,0-1,0.4-1,1s0.4,1,1,1h13.5c0.5,0,1-0.4,1-1s-0.4-1-1-1H-262.4z"/>
	<path class="st0" d="M-271.1,370h28v13.5h13.5v13.1h1.9v-14.5l-14.1-14.1H-273V426h29.9v-1.9h-28V370z M-241.1,371.4l10.2,10.2
		h-10.2V371.4z"/>
	<path class="st1" d="M-240.2,402.8V426h23.2v-23.2H-240.2z M-218.9,424.1h-19.3v-19.3h8.7v12.2l-4.1-4.1l-1.4,1.4l6.5,6.5l6.5-6.5
		l-1.4-1.4l-4.1,4.1v-12.2h8.7V424.1z"/>
</g>
</svg>
